<?xml version="1.0" encoding="utf-8"?>
<!-- Generator: Adobe Illustrator 22.0.1, SVG Export Plug-In . SVG Version: 6.00 Build 0)  -->
<svg version="1.1" xmlns="http://www.w3.org/2000/svg" xmlns:xlink="http://www.w3.org/1999/xlink" x="0px" y="0px"
	 viewBox="0 0 324.075 225.401" style="enable-background:new 0 0 324.075 225.401;" xml:space="preserve">
<style type="text/css">
	.st0{fill:#222222;}
	.st1{clip-path:url(#SVGID_2_);}
	.st2{display:none;}
	.st3{display:inline;fill:#6B6252;}
	.st4{display:inline;fill:#4F493D;}
	.st5{display:none;fill:#FFFFFF;}
	.st6{font-family:'BebasNeue';}
	.st7{font-size:37.3465px;}
</style>
<g id="Layer_2">
</g>
<g id="Layer_6">
	<g>
		<g>
			<path class="st0" d="M50.369,91.831V8.985c0-3.813,3.102-6.915,6.915-6.915h198.03c3.812,0,6.914,3.102,6.914,6.915V79.52
				l2.07-0.12V8.985c0-4.954-4.031-8.985-8.985-8.985H57.283c-4.954,0-8.985,4.031-8.985,8.985v82.966L50.369,91.831z"/>
			<path class="st0" d="M262.228,116.61v46.277c0,3.967-2.978,8.857-6.504,10.677l-93.764,48.403
				c-3.569,1.843-9.59,1.821-13.146-0.047l-91.961-48.303c-3.515-1.846-6.484-6.76-6.484-10.73v-33.394l-2.07,0.126v33.268
				c0,4.728,3.406,10.364,7.592,12.563l91.961,48.303c2.09,1.098,4.846,1.648,7.597,1.648c2.702,0,5.4-0.531,7.461-1.594
				l93.765-48.403c4.204-2.17,7.624-7.785,7.624-12.516v-46.403L262.228,116.61z"/>
		</g>
		<g>
			<defs>
				<path id="SVGID_1_" d="M57.678,171.284c-2.424-1.261-4.408-4.529-4.408-7.262V10.408c0-2.733,2.236-4.969,4.969-4.969h196.118
					c2.733,0,4.969,2.236,4.969,4.969v153.615c0,2.733-1.991,5.987-4.424,7.231l-95.074,48.614c-2.433,1.244-6.407,1.23-8.832-0.031
					L57.678,171.284z"/>
			</defs>
			<clipPath id="SVGID_2_">
				<use xlink:href="#SVGID_1_"  style="overflow:visible;"/>
			</clipPath>
			<g class="st1">
				<path class="st0" d="M186.454,143.908h-1.149v4.661h0.932c0.889,0,1.431-0.39,1.431-1.605v-1.496
					C187.668,144.385,187.299,143.908,186.454,143.908z"/>
				<path class="st0" d="M117.582,62.972c0.339-0.29,0.484-0.622,0.484-0.996c0-1.328-1.887-2.904-3.435-2.904
					c-0.484,0-0.871,0.166-1.209,0.498c-0.193,0.207-0.581,0.705-1.113,1.452c-0.339-0.871-0.871-1.535-1.355-1.826
					c-1.354-0.996-2.273-1.328-3.047-1.328c-0.387,0-0.774,0.125-1.161,0.249c-3.047,1.12-12.335,8.547-12.335,14.438
					c0,1.411,1.209,1.369,1.983,2.821c0.725,1.452,1.693,1.618,2.515,1.618c1.258,0,3.531-1.328,5.66-2.987
					c0.532,1.95,1.887,3.983,4.596,3.983c2.022,0,5.23-2.005,8.094-5.017c0.237,0.331,0.505,0.693,0.804,1.159
					c1.064,1.743,2.758,2.821,5.273,2.821c1.654,0,3.349-0.582,4.914-1.411c0.295,0.841,2.688,1.826,3.549,1.826
					c0.484,0,0.968-0.208,1.306-0.788c0.919-1.66,2.999-4.481,5.563-7.343c0.823,3.07,1.355,8.132,6.386,8.132
					c2.48,0,5.366-1.935,7.173-4.08c0.349,0.722,1.216,0.95,1.823,2.089c0.726,1.452,1.693,1.618,2.515,1.618
					c1.258,0,3.532-1.328,5.66-2.987c0.532,1.95,1.887,3.983,4.596,3.983c1.765,0,4.434-1.529,6.988-3.92
					c0.265,0.511,0.69,1.028,1.33,1.555c1.452,1.203,2.758,1.701,4.015,1.701c1.73,0,3.87-1.225,5.708-2.582
					c0.383,1.046,1.868,1.545,2.998,1.545c0.387,0,0.774-0.041,1.113-0.249c1.016-0.581,7.691-8.339,12.674-11.077
					c-2.032,2.531-4.112,5.85-4.112,8.09c0,2.24,1.79,4.066,4.451,4.066c2.391,0,4.908-1.752,6.776-3.53
					c0.623,0.761,1.388,1.302,1.734,1.622c0.871,0.83,2.419,1.95,4.257,1.95c4.789,0,12.48-8.878,12.674-13.442
					c0-0.124,0-0.208,0-0.332c0-3.112-2.08-3.195-3.531-4.315c-0.532-0.415-1.693-1.535-3.289-1.535
					c-0.338,0-0.725,0.042-1.161,0.208c-3.144,1.079-11.61,7.883-11.61,13.525c0,0.064,0.018,0.12,0.022,0.182
					c-2.283,1.981-4.761,3.344-5.679,3.344c-0.532,0-0.774-0.249-0.774-0.747c0-2.489,6.773-10.455,8.466-11.285
					c0.387-0.249,0.532-0.498,0.532-0.788c0-1.079-2.467-3.651-3.822-3.651c-0.484,0-1.064,0.166-1.693,0.622
					c-1.452,0.954-7.934,6.057-11.175,8.795c3.87-5.103,12.094-14.355,13.255-15.807c0.29-0.373,0.435-0.747,0.435-1.079
					c0-1.411-2.08-2.448-3.58-2.448c-0.822,0-1.499,0.207-1.838,0.664c-0.589,0.775-3.534,4.841-6.768,9.33
					c-0.179-0.394-0.49-0.725-0.97-0.701c-0.387,0-2.612,0.083-5.37,0.124c2.032-2.24,3.677-3.9,4.306-4.356
					c0.532-0.415,0.774-0.788,0.774-1.12c0-0.954-3.338-2.78-4.354-2.78c-0.339,0-0.677,0.125-0.871,0.415
					c-0.677,1.037-3.386,4.19-6.289,7.883c-0.096,0-0.193,0-0.242,0c-1.644,0-3.289-0.083-4.934-0.083
					c-0.532,0-0.774,0.249-0.774,0.581c0,0.83,1.258,2.199,2.516,2.199c0.049,0,0.145,0.042,0.242,0.042
					c0.338,0,0.677-0.042,1.113-0.042c-2.854,3.693-5.515,7.592-6.579,10.289c-0.046,0.137-0.075,0.274-0.114,0.411
					c-2.737,2.445-4.539,3.157-5.639,3.157c-0.532,0-1.161-0.415-1.161-1.411c0-0.871,7.014-8.92,8.369-10.04
					c0.339-0.29,0.484-0.622,0.484-0.996c0-1.328-1.886-2.904-3.434-2.904c-0.484,0-0.871,0.166-1.21,0.498
					c-0.193,0.207-0.58,0.705-1.113,1.452c-0.338-0.871-0.871-1.535-1.355-1.826c-1.355-0.996-2.274-1.328-3.047-1.328
					c-0.387,0-0.774,0.125-1.161,0.249c-2.727,1.002-10.433,7.054-12.026,12.537c-0.922,0.743-4.063,3.436-5.677,3.436
					c-2.322,0-2.419-3.526-2.419-4.563c4.837-0.581,10.933-4.73,10.933-7.924c0-1.286-0.629-1.286-0.968-2.158
					c-0.242-0.581-0.774-2.033-2.999-2.033c-0.726,0-1.597,0.124-2.661,0.498c1.451-1.742,3.628-4.398,4.983-5.891
					c0.193-0.208,0.29-0.457,0.29-0.705c0-1.577-3.047-3.112-4.015-3.112c-0.145,0-0.193,0.041-0.242,0.083
					c-1.039,1.782-11.601,14.78-17.345,21.809c-2.035,1.629-5.014,4.08-9.452,4.08c-1.596,0-2.758-1.369-2.758-2.075
					c0-2.448,5.95-7.468,8.514-8.712c-0.774,1.079-1.258,1.991-1.258,2.697c0,0.871,0.967,1.95,1.499,1.95
					c1.887,0,4.983-3.609,4.983-4.813c0-1.244-0.774-2.489-1.403-3.029c-0.629-0.539-0.823-2.406-2.709-2.406
					c-3.87,0-13.109,8.215-13.4,11.575c0,0.208,0,0.373,0,0.581c0,0.396,0.032,0.718,0.079,1.013
					c-2.926,2.69-4.834,3.468-5.978,3.468c-0.532,0-1.161-0.415-1.161-1.411C109.213,72.141,116.228,64.092,117.582,62.972z
					 M223.606,61.893c0.629,0,0.919,0.332,0.919,0.871c0,2.821-8.03,11.741-10.401,11.741c-1.307,0-1.887-0.539-1.887-1.369
					C212.237,69.859,220.461,61.893,223.606,61.893z M186.942,59.943c1.451-0.125,2.951-0.208,4.305-0.208
					c1.028,0,2.015,0.06,2.872,0.193c-3.413,4.743-6.885,9.594-8.076,11.31c-2.234,1.805-5.41,4.056-7.083,4.056
					c-0.919,0-1.355-0.498-1.355-1.245C177.605,71.352,182.588,64.922,186.942,59.943z M167.691,62.059
					c0.435,0,0.774,0.166,1.065,0.581c-1.452,1.825-9.095,11.202-11.659,11.202c-0.29,0-0.435-0.207-0.435-0.539
					C156.662,70.855,164.934,62.059,167.691,62.059z M151.875,59.279c0.581,0,0.822,0.249,0.822,0.622
					c0,1.743-5.757,6.68-11.707,6.846C143.022,64.631,148.343,59.362,151.875,59.279z M99.442,73.842
					c-0.29,0-0.436-0.207-0.436-0.539c0-2.448,8.272-11.243,11.03-11.243c0.435,0,0.774,0.166,1.064,0.581
					C109.648,64.465,102.005,73.842,99.442,73.842z"/>
				<path class="st0" d="M125.885,143.908h-1.344v10.841h1.344c0.759,0,1.214-0.39,1.214-1.475v-7.892
					C127.099,144.298,126.644,143.908,125.885,143.908z"/>
				<path class="st0" d="M87.787,51.065c0-1.245-3.435-2.406-4.644-2.406c-0.581,0-0.967,0.207-1.258,0.539
					c-0.435,0.373-5.95,7.551-10.933,14.065c-3.725,0.29-6.724,0.581-7.498,0.747c-0.484,0.124-0.726,0.456-0.726,0.871
					c0,1.079,1.451,2.78,2.999,2.78c0.677,0,1.355-0.124,1.983-0.208c-2.225,2.946-4.015,5.269-4.595,6.099
					c-0.193,0.249-0.242,0.498-0.242,0.747c0,1.618,2.515,2.738,4.16,2.738c0.774,0,1.548-0.29,2.032-1.037
					c1.161-1.784,3.725-5.269,6.724-9.293l9.869-0.913c-2.467,3.319-4.451,6.182-5.128,7.427c-0.145,0.332-0.242,0.664-0.242,0.954
					c0,0.954,0.822,1.618,1.79,1.867c1.112,0.29,2.177,0.871,3.047,0.871c0.484,0,0.967-0.208,1.355-0.83
					c2.467-3.983,14.174-21.201,18.769-24.685c0.387-0.332,0.774-0.871,0.774-1.452c0-1.701-3.289-2.738-4.983-2.738
					c-0.967,0-1.548,0.415-2.225,1.328c-0.339,0.457-5.515,7.095-10.304,13.442c-2.322,0.124-5.902,0.373-9.578,0.622
					c2.854-3.692,5.853-7.51,8.465-10.663C87.642,51.646,87.787,51.314,87.787,51.065z"/>
				<path class="st0" d="M238.455,60.98c0-0.789-2.903-2.323-3.822-2.323c-0.484,0-0.968,0.207-1.452,0.871
					c-0.58,0.789-8.756,13.069-9.481,14.77c-0.049,0.083-0.096,0.249-0.096,0.373c0,1.203,2.128,2.531,3.676,2.531
					c1.016,0,8.466-8.92,12.916-11.492c-1.887,1.991-3.967,5.518-3.967,7.219c0,2.199,1.161,3.734,3.289,3.692
					c4.305,0,8.562-3.9,10.255-7.053c0.097-0.166,0.097-0.29,0.097-0.415c0-0.373-0.097-0.498-0.387-0.498
					c-0.193,0-0.339,0.041-0.484,0.208c-1.016,1.203-5.37,5.31-7.111,5.31c-0.629,0.041-1.064-0.457-1.064-0.996
					c0-1.576,2.612-5.393,7.547-10.662c0.387-0.415,0.58-0.747,0.58-1.037c0-0.871-2.903-2.78-3.87-2.78
					c-0.388,0-0.726,0.124-1.113,0.456c-0.919,0.913-9.723,9.169-13.061,12.322c1.983-2.489,6.917-9.293,7.352-9.915
					C238.406,61.354,238.455,61.146,238.455,60.98z"/>
				<path class="st0" d="M259.326,1.035H53.271v38.218h206.056V1.035z M74.439,19.241h-3.158v-2.278
					c0-1.519-0.668-2.096-1.731-2.096c-1.063,0-1.731,0.577-1.731,2.096v11.479c0,1.518,0.668,2.065,1.731,2.065
					c1.063,0,1.731-0.547,1.731-2.065v-3.917h-1.518v-3.037h4.677v6.742c0,3.401-1.701,5.345-4.981,5.345
					c-3.28,0-4.98-1.944-4.98-5.345V17.176c0-3.401,1.701-5.345,4.98-5.345c3.28,0,4.981,1.944,4.981,5.345V19.241z M90.471,33.332
					h-8.837V12.074h3.341v18.221h5.497V33.332z M106.838,28.23c0,3.401-1.792,5.345-5.072,5.345c-3.28,0-5.072-1.944-5.072-5.345
					V17.176c0-3.401,1.792-5.345,5.072-5.345c3.28,0,5.072,1.944,5.072,5.345V28.23z M124.358,28.291
					c0,3.28-1.731,5.041-5.072,5.041h-5.254V12.074h5.041c3.462,0,4.95,1.61,4.95,4.89v0.759c0,2.187-0.668,3.583-2.156,4.282
					c1.792,0.698,2.49,2.308,2.49,4.555V28.291z M138.841,33.332l-0.577-3.857h-4.1l-0.577,3.857h-3.067l3.401-21.258h4.89
					l3.401,21.258H138.841z M157.637,33.332h-8.837V12.074h3.341v18.221h5.497V33.332z M182.717,33.332h-8.838V12.074h3.341v18.221
					h5.497V33.332z M198.323,15.111h-5.77v5.922h4.586v3.037h-4.586v6.226h5.77v3.037h-9.111V12.074h9.111V15.111z M215.115,19.241
					h-3.158v-2.278c0-1.519-0.668-2.096-1.731-2.096c-1.063,0-1.731,0.577-1.731,2.096v11.479c0,1.518,0.668,2.065,1.731,2.065
					c1.063,0,1.731-0.547,1.731-2.065v-3.917h-1.518v-3.037h4.676v6.742c0,3.401-1.7,5.345-4.98,5.345s-4.98-1.944-4.98-5.345
					V17.176c0-3.401,1.7-5.345,4.98-5.345s4.98,1.944,4.98,5.345V19.241z M229.72,33.332l-0.577-3.857h-4.1l-0.577,3.857h-3.067
					l3.401-21.258h4.889l3.401,21.258H229.72z M248.516,33.332h-8.837V12.074h3.34v18.221h5.497V33.332z"/>
				<path class="st0" d="M269.891,157.106l-2.487-4.677l-56.501-32.698l-11.777,0.716l-4.638,3.134l-2.89-2.676l-87.879,5.344
					l-11.862,11.514l-9.974-9.618l-32.709,28.961H13.448v100.218H310.19V157.106H269.891z M160.808,141.74l1.821,12.38l1.822-12.38
					h2.19l-2.341,15.177h-3.556l-2.341-15.177H160.808z M146.153,141.74h2.992l2.45,9.084v-9.084h2.125v15.177h-2.45l-2.971-10.992
					v10.992h-2.146V141.74z M124.146,185.611h3.41v1.64h-5.214v-1.41c0-3.378,3.574-3.935,3.574-7.247
					c0-1.033-0.361-1.311-0.934-1.311s-0.934,0.311-0.934,1.131v1.23h-1.705v-1.115c0-1.836,0.918-2.885,2.689-2.885
					c1.771,0,2.689,1.049,2.689,2.885C127.72,182.3,123.802,183.595,124.146,185.611z M125.929,156.917h-3.773V141.74h3.773
					c2.385,0,3.556,1.322,3.556,3.75v7.675C129.484,155.594,128.313,156.917,125.929,156.917z M134.576,184.497
					c0,1.836-0.967,2.886-2.738,2.886c-1.771,0-2.738-1.049-2.738-2.886v-5.968c0-1.836,0.967-2.885,2.738-2.885
					c1.771,0,2.738,1.049,2.738,2.885V184.497z M134.599,141.74h6.504v2.168h-4.119v4.227h3.274v2.169h-3.274v4.445h4.119v2.168
					h-6.504V141.74z M165.471,181.381c0,1.141-0.227,2.229-0.631,3.225l7.991,3.231c-2.71,6.699-9.158,10.765-15.966,10.765
					c-2.15,0-4.335-0.405-6.45-1.261c-8.814-3.566-13.069-13.602-9.504-22.416c2.71-6.699,9.158-10.765,15.966-10.765
					c2.15,0,4.335,0.405,6.45,1.261c4.325,1.749,7.754,5.179,9.504,9.504l-7.991,3.231
					C165.244,179.153,165.471,180.24,165.471,181.381z M177.848,143.908h-4.119v4.227h3.274v2.169h-3.274v4.445h4.119v2.168h-6.504
					V141.74h6.504V143.908z M181.597,187.251h-1.803v-8.755H178.4v-1.279c1.394,0,1.706-0.672,1.984-1.443h1.213V187.251z
					 M189.6,178.89c0,1.131-0.377,1.902-1.115,2.312c0.787,0.443,1.115,1.295,1.115,2.394v0.902c0,1.836-1,2.886-2.82,2.886
					s-2.82-1.049-2.82-2.886v-0.902c0-1.099,0.328-1.951,1.115-2.394c-0.754-0.41-1.115-1.181-1.115-2.312v-0.361
					c0-1.836,1-2.885,2.82-2.885s2.82,1.049,2.82,2.885V178.89z M187.906,156.917c-0.13-0.39-0.216-0.629-0.216-1.865v-2.385
					c0-1.409-0.477-1.929-1.561-1.929h-0.824v6.179h-2.385V141.74h3.599c2.472,0,3.534,1.149,3.534,3.49v1.193
					c0,1.561-0.499,2.58-1.561,3.078c1.192,0.499,1.583,1.648,1.583,3.231v2.341c0,0.737,0.022,1.28,0.26,1.843H187.906z"/>
				<path class="st0" d="M131.838,177.283c-0.574,0-0.934,0.311-0.934,1.131v6.197c0,0.82,0.361,1.132,0.934,1.132
					s0.934-0.311,0.934-1.132v-6.197C132.772,177.594,132.412,177.283,131.838,177.283z"/>
				<polygon class="st0" points="134.589,26.59 137.808,26.59 136.199,15.84 				"/>
				<path class="st0" d="M118.861,23.766h-1.488v6.529h1.913c1.123,0,1.731-0.517,1.731-2.096v-1.853
					C121.017,24.373,120.379,23.766,118.861,23.766z"/>
				<path class="st0" d="M162.81,166.701c-1.903-0.77-3.899-1.16-5.932-1.16c-6.489,0-12.254,3.887-14.687,9.902
					c-1.586,3.921-1.551,8.226,0.101,12.12c1.651,3.894,4.72,6.913,8.641,8.499c1.903,0.77,3.899,1.16,5.933,1.16
					c6.024,0,11.424-3.351,14.114-8.645l-6.765-2.735c-1.51,2.483-4.233,4.147-7.352,4.147c-4.754,0-8.608-3.854-8.608-8.608
					s3.854-8.608,8.608-8.608c3.119,0,5.842,1.664,7.352,4.147l6.762-2.734C169.253,170.816,166.337,168.128,162.81,166.701z"/>
				<path class="st0" d="M120.683,18.482v-1.184c0-1.518-0.516-2.187-1.701-2.187h-1.609v5.618h1.306
					C119.924,20.729,120.683,20.182,120.683,18.482z"/>
				<path class="st0" d="M186.78,177.283c-0.574,0-1.016,0.278-1.016,1.311v0.64c0,0.918,0.426,1.213,1.016,1.213
					c0.573,0,1.016-0.295,1.016-1.213v-0.64C187.796,177.561,187.353,177.283,186.78,177.283z"/>
				<path class="st0" d="M186.78,182.087c-0.64,0-1.016,0.394-1.016,1.295v1.065c0,1.016,0.442,1.295,1.016,1.295
					c0.573,0,1-0.279,1.016-1.295v-1.065C187.796,182.48,187.419,182.087,186.78,182.087z"/>
				<polygon class="st0" points="225.468,26.59 228.688,26.59 227.078,15.84 				"/>
				<path class="st0" d="M101.766,14.868c-1.063,0-1.731,0.577-1.731,2.096v11.479c0,1.518,0.668,2.095,1.731,2.095
					c1.063,0,1.731-0.577,1.731-2.095V16.964C103.497,15.445,102.829,14.868,101.766,14.868z"/>
			</g>
		</g>
	</g>
	<g class="st2">
		<path class="st3" d="M648.209-194.289c-85.851,17.778-174.435,17.778-260.285,0c3.388-16.36,6.776-32.722,10.164-49.082
			c79.146,16.391,160.81,16.391,239.957,0C641.432-227.011,644.821-210.65,648.209-194.289z"/>
		<path class="st4" d="M652.548-203.912c15.8-2.746,30.964-7.222,45.231-13.214c-10.312-5.038-19.809-10.852-28.419-17.262
			c2.331-9.662,4.197-19.365,5.599-29.074c-16.539,6.507-34.799,10.39-54.042,10.941c6.517,2.047,13.175,3.711,19.939,4.978
			C643.728-232.905,647.627-218.325,652.548-203.912z"/>
		<path class="st4" d="M382.388-203.187c-15.8-2.746-30.964-7.222-45.23-13.215c10.311-5.037,19.809-10.851,28.419-17.261
			c-2.331-9.662-4.197-19.365-5.599-29.073c16.539,6.506,34.799,10.389,54.042,10.939c-6.517,2.048-13.175,3.712-19.939,4.979
			C391.208-232.179,387.309-217.599,382.388-203.187z"/>
	</g>
	<g>
		<g>
			<g>
				<polygon class="st0" points="282.356,100.156 324.075,97.532 302.818,111.763 324.075,124.87 268.967,128.616 282.356,116.632 
									"/>
			</g>
		</g>
		<g>
			<g>
				<polygon class="st0" points="266.015,116.449 280.356,115.632 266.407,127.616 				"/>
			</g>
		</g>
		<g>
			<g>
				<g>
					<polygon class="st0" points="0,84.529 44.26,82.423 33.51,91.446 33.51,105.28 0.634,107.084 18.338,94.756 					"/>
				</g>
			</g>
			<g>
				<g>
					<polygon class="st0" points="46.421,83.443 35.515,92.593 46.432,91.939 					"/>
				</g>
			</g>
		</g>
	</g>
	<text transform="matrix(1.8982 0 0 1 114.4083 -232.9612)" class="st2 st6" style="font-size:38.5569px;">WINNERS</text>
	<text transform="matrix(1.9356 -0.1151 -0.0072 1 56.7815 123.3688)" class="st5 st6 st7">WINNERS</text>
	<g>
		<g>
			<path class="st0" d="M214.38,91.596l-3.832,0.228l-0.058,8.031l3.108-0.185c2.965-0.176,4.776-0.957,4.792-3.048l0.019-2.577
				C218.422,92.177,217.2,91.428,214.38,91.596z"/>
		</g>
		<g>
			<path class="st0" d="M35.568,94.694v33.695l244.44-14.864V80.491L35.568,94.694z M90.758,121.348l-10.555,0.627l-2.791-13.76
				L74.42,122.32l-10.916,0.649l-5.449-25.811l7.735-0.46l4.116,20.364l3.98-20.846l7.663-0.456l3.826,20.531l4.271-21.013
				l6.94-0.413L90.758,121.348z M108.321,120.304l-7.952,0.473l0.189-26.146l7.952-0.473L108.321,120.304z M139.26,118.464
				l-8.168,0.486l-9.767-18.349l-0.137,18.938l-7.157,0.426l0.189-26.146l9.976-0.593l8.057,15.166l0.113-15.651l7.084-0.421
				L139.26,118.464z M170.125,116.628l-8.169,0.486l-9.767-18.349l-0.137,18.938l-7.157,0.426l0.189-26.146l9.976-0.593
				l8.056,15.166l0.113-15.651l7.084-0.421L170.125,116.628z M197.683,92.588l-13.735,0.817l-0.053,7.284l10.916-0.649l-0.027,3.735
				l-10.916,0.649l-0.056,7.656l13.735-0.817L197.52,115l-21.688,1.29l0.189-26.146l21.688-1.29L197.683,92.588z M219.061,113.719
				c-0.429-0.646-0.714-1.04-0.698-3.17l0.029-4.108c0.018-2.427-1.567-3.229-5.182-3.014l-2.747,0.163l-0.077,10.645l-7.952,0.473
				l0.189-26.146l12-0.714c8.241-0.49,11.769,1.279,11.74,5.313l-0.015,2.055c-0.02,2.689-1.695,4.544-5.244,5.613
				c3.971,0.623,5.257,2.526,5.237,5.252l-0.029,4.034c-0.009,1.27,0.056,2.2,0.845,3.123L219.061,113.719z M254.04,92.597
				l-7.519,0.447l0.008-1.083c0.014-1.867-1.427-2.491-3.957-2.341c-2.53,0.15-3.982,0.946-3.996,2.813
				c-0.039,5.379,15.497,5.463,15.443,12.933c-0.03,4.184-4.096,6.815-11.903,7.279c-7.808,0.464-11.838-1.686-11.808-5.869
				l0.012-1.606l7.518-0.447l-0.014,1.868c-0.014,1.867,1.572,2.446,4.103,2.295c2.529-0.15,4.126-0.918,4.14-2.785
				c0.039-5.378-15.497-5.462-15.443-12.933c0.03-4.184,4.023-6.811,11.758-7.271c7.735-0.46,11.694,1.694,11.664,5.878
				L254.04,92.597z"/>
		</g>
	</g>
</g>
</svg>
