<?xml version="1.0" encoding="utf-8"?>
<!-- Generator: Adobe Illustrator 22.0.1, SVG Export Plug-In . SVG Version: 6.00 Build 0)  -->
<svg version="1.1" xmlns="http://www.w3.org/2000/svg" xmlns:xlink="http://www.w3.org/1999/xlink" x="0px" y="0px"
	 viewBox="0 0 416.4 58.4" style="enable-background:new 0 0 416.4 58.4;" xml:space="preserve">
<style type="text/css">
	.st0{display:none;}
	.st1{display:inline;fill:#FDE04A;}
</style>
<g id="Layer_2" class="st0">
	<rect x="-184.6" y="-207.9" class="st1" width="792" height="612"/>
</g>
<g id="Layer_1">
	<g>
		<g>
			<path d="M95.9,16.7h7.2v33.7h28v6.7H95.9V16.7z"/>
			<path d="M173.9,49.8c-4.7,6.1-10.4,8.4-18,8.4c-12.7,0-20.5-9.5-20.5-21.2c0-12.5,8.8-21.2,20.7-21.2c11.4,0,19.2,7.8,19.2,21.1
				V39h-32.6c0.5,7,5.9,12.9,13.2,12.9c5.8,0,9.7-2.1,12.9-6.1L173.9,49.8z M168.1,33.3c-0.3-6.8-4.7-11.4-12.2-11.4
				s-12.3,4.6-13.2,11.4H168.1z"/>
			<path d="M196.3,35.4l-14.5-18.6h8.8l10.7,14.5l10.1-14.5h8.2l-13.9,18.6l16.7,21.7h-8.9l-12.8-17.4l-12.6,17.4h-8.4L196.3,35.4z"
				/>
			<path d="M230.2,16.7h7.2v33.7h28v6.7h-35.2V16.7z"/>
			<path d="M307.4,47.5c0,3.7,0.3,6.9,0.3,9.6h-6.4c0-2.2-0.2-4.4-0.2-6.6H301c-1.8,4-6.8,7.7-13.5,7.7c-10.6,0-15.4-6.7-15.4-16.5
				V16.7h6.7V41c0,6.7,2.9,11,9.2,11c8.7,0,12.5-6.3,12.5-15.5V16.7h6.7V47.5z"/>
			<path d="M348.9,26.8c-2.8-3.5-6.1-4.9-10.2-4.9c-9.1,0-13.6,6.7-13.6,15s5.4,15,13.6,15c4.4,0,7.8-1.6,10.3-5l5,4.7
				c-3.9,4.5-9.4,6.5-15.3,6.5c-12.5,0-20.9-8.8-20.9-21.2c0-12.3,8.5-21.2,20.9-21.2c6,0,11.5,2,15.5,6.4L348.9,26.8z"/>
			<path d="M365.7,0c2.8,0,4.9,2.2,4.9,4.9c0,2.8-2.1,4.9-4.9,4.9s-4.9-2.1-4.9-4.9C360.8,2.2,362.9,0,365.7,0z M362.3,16.7h6.7
				v40.4h-6.7V16.7z"/>
			<path d="M379.9,16.6h16c10.6,0,20.6,6.5,20.6,20.2c0,13.8-11.7,20.2-21.4,20.2h-15.1V16.6z M392.5,50.6c9,0,16.4-3.9,16.4-13.7
				s-6.4-13.7-15.2-13.7h-7v27.4H392.5z"/>
		</g>
		<g>
			<circle cx="2.8" cy="37.1" r="2.8"/>
			<circle cx="14.4" cy="43.3" r="4.9"/>
			<circle cx="31.4" cy="50.1" r="8.3"/>
			<circle cx="49.5" cy="47" r="4.9"/>
			<circle cx="26.2" cy="26.7" r="4.9"/>
			<circle cx="44.2" cy="23.6" r="8.3"/>
			<circle cx="72.9" cy="36.6" r="2.8"/>
			<circle cx="61.3" cy="30.4" r="4.9"/>
		</g>
	</g>
</g>
</svg>
